<?xml version="1.0" encoding="utf-8"?>
<!-- Generator: Adobe Illustrator 27.4.0, SVG Export Plug-In . SVG Version: 6.00 Build 0)  -->
<svg version="1.1" id="图层_1" xmlns="http://www.w3.org/2000/svg" xmlns:xlink="http://www.w3.org/1999/xlink" x="0px" y="0px"
	 viewBox="0 0 1200 553" style="enable-background:new 0 0 1200 553;" xml:space="preserve">
<style type="text/css">
	.st0{fill:#00E81B;}
</style>
<g>
	<path class="st0" d="M100.1,499.89V50h192.09v60.66H164.55v132.06h111.21v60.66H164.55v132.06h127.64v64.45H100.1z"/>
	<path class="st0" d="M302.3,499.89l90.99-235.69L309.25,50h68.24l48.65,133.33L475.43,50h68.24l-85.93,214.2l92.89,235.69h-68.24
		l-56.24-151.65l-55.61,151.65H302.3z"/>
	<path class="st0" d="M581.58,499.89V50h64.45v449.89H581.58z"/>
	<path class="st0" d="M750.92,499.89V110.66h-74.56V50h213.57v60.66h-74.56v389.23H750.92z"/>
	<path class="st0" d="M927.09,303.3h77.67l95.66,98.3l-95.66,98.3h-77.67l96.1-98.3L927.09,303.3z"/>
</g>
</svg>
